<svg xmlns="http://www.w3.org/2000/svg" viewBox="0 0 1000 1000"><path d="M800.7 542l-.8-.8-.9-357.7-66.3.2.1 33.2 33.1-.1.8 312.2-398.3 397.1L57 615.7l398.8-398.8h21.8l182.5.1v-33.2h-35.5l-182.3-.1-.2-.2L10 615.7 368.4 973l432.3-431z"/><path d="M692.7 125.1l-36.8 208.4 32.7 5.8 37-209.6c2-9.5 6.1-19.7 12.8-31.9h.1c26.6-48.7 84.4-71.8 137.3-54.9 61.1 19.5 94.9 85 75.4 146.1-15.5 48.5-59.9 80.9-110.7 80.9h-.9l-.3 33.2h1.1c30.8 0 61.7-9.9 86.9-27.9 26.4-18.8 45.6-45.2 55.5-76.2C1008 120.7 964.5 36.4 886 11.3c-68-21.7-142.3 7.9-176.5 70.4h-.1c-8.5 15.4-13.7 28.7-16.4 41.7v.1c-.1.5-.3 1-.3 1.6z"/><path d="M638.5 402.6c-33.6 0-60.9-27.3-60.9-60.9 0-23.2 12.9-44 33.6-54.5 4.9-2.4 10-4.1 15.3-5l-6.1-32.7c-8.7 1.6-17.1 4.5-25.1 8.4-31.5 16.3-51 48.2-51 83.7 0 51.9 42.3 94.2 94.2 94.2s94.2-42.3 94.2-94.2h-33.2c0 33.7-27.4 61-61 61z"/></svg>