<svg xmlns="http://www.w3.org/2000/svg" fill="#fff" viewBox="0 0 25 20"><path d="M16.351 5.78c-2.848 0-5.183 2.373-5.183 5.33 0 2.96 2.335 5.332 5.183 5.332 1.49 0 2.834-.646 3.782-1.687a5.393 5.393 0 001.4-3.644c0-2.958-2.334-5.33-5.182-5.33zm-6.379 5.33c0-3.59 2.842-6.526 6.38-6.526 3.536 0 6.378 2.937 6.378 6.527 0 1.51-.502 2.904-1.347 4.011l3.545 3.57a.598.598 0 11-.848.843l-3.507-3.53a6.275 6.275 0 01-4.222 1.633c-3.537 0-6.379-2.937-6.379-6.527zm-2.99-2.937c0 .33-.268.598-.599.598H1.598a.598.598 0 010-1.196h4.785c.33 0 .598.268.598.598zm0 4.785a.6.6 0 01-.599.599H1.598a.598.598 0 110-1.197h4.785c.33 0 .598.268.598.599zm2.392 4.786c0 .33-.268.598-.598.598H1.598a.598.598 0 110-1.197h7.178c.33 0 .598.268.598.599z"/></svg>