<svg width="473" height="472" fill="none" xmlns="http://www.w3.org/2000/svg"><path d="M279.712 462.657c-63.615 8.779-130.505-9.078-182.513-54.836C2.482 324.414-6.744 179.995 76.737 85.278 133.061 21.291 217.214-3.635 295.04 12.585c9.598 1.488 19.196 3.646 29.017 5.73-1.339-2.977-3.72-2.828-5.506-3.497-5.431-2.01-10.714-4.465-16.592-5.06C282.763 3.285 262.897.086 242.733.086c-90.698-.15-160.936 37.648-209.076 114.88-19.047 30.208-29.761 63.69-32.291 99.553-3.646 31.398.372 62.053 9.821 91.963 7.887 24.851 18.899 48.14 35.417 68.601.297.521.595.967.893 1.339 5.877 9.152 13.02 17.113 21.13 24.256.745 1.116 1.637 2.158 2.605 3.125 10.863 12.351 24.627 21.205 38.243 30.208 14.286 9.301 29.316 17.187 45.685 22.247 19.791 7.961 40.252 12.5 61.606 13.542 29.762 3.496 58.631-.745 86.979-9.673-8.036 1.265-15.997 2.158-24.033 2.53zM21.455 195.843l.075-.074v.148l-.075-.074z" fill="url(#paint0_linear_119_1498)"/><path d="M436.631 357.152c10.863-14.658 18.154-31.101 23.66-48.363.298-.67.744-1.34.967-2.009 11.161-33.184 13.393-67.187 9.152-101.711 1.116 23.289-.372 62.872-19.643 105.431-12.5 27.678-27.976 46.503-35.342 54.91-35.937 40.774-83.704 64.955-133.63 71.875-18.526 1.042-36.979-.223-55.505-2.902-9.301-2.455-18.676-4.836-27.976-7.292-51.19-18.229-91.22-50.371-119.419-97.023-6.92-13.839-13.69-27.678-18.378-42.484-9.152-28.497-11.756-57.664-9.821-87.425 1.637-11.682 4.092-23.14 6.994-34.45.297-1.934.67-3.794 1.041-5.729.596-3.125 1.19-6.175 1.786-9.3-4.539 6.994-6.696 14.657-8.482 22.47C26.886 270.768 69 372.628 156.5 424.413c26.488 15.699 55.208 25.372 86.234 27.381 18.824 2.753 37.5 1.488 56.027-1.935 30.58-5.655 58.928-16.741 83.779-35.788 7.961-4.762 15.178-10.491 21.279-17.634 1.712-1.19 3.2-2.53 4.465-3.943 11.383-10.119 20.684-22.024 28.348-35.342z" fill="url(#paint1_linear_119_1498)"/><path d="M50.696 200.159c-2.009 29.687.67 58.853 9.747 87.35 4.687 14.807 11.533 28.646 18.378 42.485 28.199 46.651 68.154 78.72 119.419 97.023 9.3 2.455 18.675 4.836 27.976 7.292 18.452 2.678 36.978 3.943 55.505 2.901 49.925-6.919 97.693-31.101 133.63-71.874 7.738-8.78 22.842-27.381 35.342-54.91 7.515-16.518 24.554-55.283 19.643-105.431-1.711-17.485-5.655-31.548-8.705-40.774a205.42 205.42 0 014.389 32.292c1.712 30.357-3.497 55.952-9.077 74.181-.744 2.157-1.637 4.241-2.306 6.399-18.378 54.315-52.381 95.311-103.869 121.055-33.63 16.964-69.493 22.694-106.844 19.941-20.536-2.679-40.551-7.59-59.747-15.476-23.884-10.566-45.312-25-64.508-42.634-4.167-4.464-8.482-8.78-12.351-13.467-23.661-28.72-39.51-59.449-47.322-92.336-11.458-48.065-.297-88.243-2.38-88.467-.67-.074-2.456 6.102-6.92 34.45z" fill="url(#paint2_linear_119_1498)"/><path d="M76.737 85.278C-6.743 179.995 2.483 324.414 97.2 407.821c52.008 45.758 118.898 63.615 182.513 54.836-19.419 1.041-38.764-.298-58.184-3.051-9.747-2.53-19.568-5.134-29.315-7.664-53.72-19.121-95.61-52.752-125.148-101.71-7.217-14.509-14.36-29.018-19.27-44.568-9.525-29.911-12.277-60.491-10.194-91.592 2.827-20.163 7.887-39.806 13.84-59.226 9.076-17.113 15.922-35.416 28.05-50.818 12.276-15.773 25.595-30.58 40.847-43.6.893-.447 1.935-.745 2.679-1.34 47.47-36.904 101.19-52.604 161.085-47.916 3.646.297 7.292.744 10.938 1.265C217.138-3.71 132.987 21.29 76.737 85.278z" fill="url(#paint3_linear_119_1498)"/><defs><linearGradient id="paint0_linear_119_1498" x1="228.916" y1="260.687" x2="372.189" y2="469.848" gradientUnits="userSpaceOnUse"><stop stop-color="#205426"/><stop offset=".309" stop-color="#1F7030"/><stop offset=".669" stop-color="#76B031"/><stop offset="1" stop-color="#B1C620"/></linearGradient><linearGradient id="paint1_linear_119_1498" x1="186.957" y1="381.879" x2="313.796" y2="122.877" gradientUnits="userSpaceOnUse"><stop stop-color="#205426"/><stop offset=".309" stop-color="#1F7030"/><stop offset=".669" stop-color="#76B031"/><stop offset="1" stop-color="#B1C620"/></linearGradient><linearGradient id="paint2_linear_119_1498" x1="195.7" y1="161.422" x2="423.977" y2="431.225" gradientUnits="userSpaceOnUse"><stop stop-color="#B1C620"/><stop offset=".331" stop-color="#76B031"/><stop offset=".691" stop-color="#1F7030"/><stop offset="1" stop-color="#205426"/></linearGradient><linearGradient id="paint3_linear_119_1498" x1="85.635" y1="-69.159" x2="214.196" y2="311.534" gradientUnits="userSpaceOnUse"><stop stop-color="#B1C620"/><stop offset=".331" stop-color="#76B031"/><stop offset=".691" stop-color="#1F7030"/><stop offset="1" stop-color="#205426"/></linearGradient></defs></svg>