<svg xmlns="http://www.w3.org/2000/svg" width="24" height="24" fill="none"><path fill-rule="evenodd" clip-rule="evenodd" d="M9.544 2h5.181c.954 0 1.728.773 1.728 1.727v.864h2.593c.953 0 1.727.773 1.727 1.727v1.727c0 .954-.774 1.728-1.727 1.728h-.07l-.794 9.5c0 .954-.773 1.727-1.727 1.727H7.818c-.954 0-1.727-.773-1.724-1.656l-.798-9.571h-.069A1.727 1.727 0 013.5 8.045V6.318c0-.954.773-1.727 1.727-1.727h2.59v-.864A1.726 1.726 0 019.543 2zM7.816 6.318H5.227v1.727h13.818V6.318H7.816zm0 12.955l-.789-9.5h10.214l-.785 9.428-.003.072H7.816zM14.73 3.727v.864H9.547v-.864h5.182z" fill="#D5D5D5"/></svg>