<svg width="24" height="23" fill="none" xmlns="http://www.w3.org/2000/svg"><path d="M6.481 1c-1.48 0-2.826.584-3.793 1.615C1.588 3.802 1 5.533 1 7.615c0 1.692.588 3.443 1.726 5.214.891 1.4 2.143 2.82 3.717 4.202 2.655 2.354 5.348 3.852 5.386 3.872L12 21l.17-.097c.02-.02 2.732-1.518 5.387-3.872 1.574-1.4 2.826-2.801 3.717-4.202C22.412 11.059 23 9.288 23 7.615c0-2.101-.588-3.833-1.688-5C20.326 1.565 18.98 1 17.52 1a5.927 5.927 0 00-3.641 1.265 5.864 5.864 0 00-1.859 2.451 5.865 5.865 0 00-1.859-2.451C9.08 1.447 7.79 1 6.481 1z" fill="#9CC051" stroke="#fff" stroke-width="2" stroke-miterlimit="10"/></svg>