<svg width="24" height="23" fill="none" xmlns="http://www.w3.org/2000/svg"><path d="M17.519 1c1.48 0 2.826.584 3.793 1.615 1.1 1.187 1.688 2.918 1.688 5 0 1.692-.588 3.443-1.726 5.214-.891 1.4-2.143 2.82-3.717 4.202-2.655 2.354-5.348 3.852-5.386 3.872L12 21l-.17-.097c-.02-.02-2.732-1.518-5.387-3.872-1.574-1.4-2.826-2.801-3.717-4.202C1.588 11.059 1 9.288 1 7.615c0-2.101.588-3.833 1.688-5C3.674 1.565 5.02 1 6.48 1a5.92 5.92 0 013.641 1.265 5.864 5.864 0 011.859 2.451 5.865 5.865 0 011.859-2.451C14.92 1.447 16.21 1 17.519 1z" fill="#fff" fill-opacity=".5" stroke="#fff" stroke-width="2" stroke-miterlimit="10"/></svg>