<svg width="1460" height="236" fill="none" xmlns="http://www.w3.org/2000/svg"><path d="M3 236V126.938s146.41-52.099 340.276-38.75c193.867 13.348 242.334 3.348 562.416 38.75 320.078 35.401 551.308-12.5 551.308-12.5V236H3z" fill="#205426"/><path fill-rule="evenodd" clip-rule="evenodd" d="M6.883 174.456c107.662-49.711 261.398-70.866 441.385-69.383-173.363-11.42-323.884-1.646-441.385 29.787v39.596z" fill="url(#paint0_linear_119_3750)"/><path fill-rule="evenodd" clip-rule="evenodd" d="M6.922 174.826c107.637-49.544 261.174-70.632 440.881-69.151-175.956-6.923-327.535 8.061-440.881 47.343v21.808z" fill="url(#paint1_linear_119_3750)"/><path fill-rule="evenodd" clip-rule="evenodd" d="M6.897 96.382c156.944-30.598 354.101-34.244 566.709-17.886C363.092 54.412 168.573 51.07 6.897 71.203v25.179z" fill="url(#paint2_linear_119_3750)"/><path fill-rule="evenodd" clip-rule="evenodd" d="M6.82 99.143c157.188-30.869 354.928-34.592 568.218-18.181C362.806 60.28 166.613 60.379 6.82 85.634v13.51z" fill="url(#paint3_linear_119_3750)"/><path fill-rule="evenodd" clip-rule="evenodd" d="M5.638 123.55c181.468-42.849 448.216-24.175 719.173-5.207 89.667 6.277 179.795 12.586 267.445 16.709 167.994 11.051 327.144 14.285 464.754 4.041l-.01-43.861c-150.29 19.215-336.84 16.495-533.26 6.464-61.046-2.508-123.06-5.733-185.025-8.956h-.002C463.728 78.438 189.715 64.187 5.637 112.939l.001 10.611z" fill="url(#paint4_linear_119_3750)"/><path fill-rule="evenodd" clip-rule="evenodd" d="M1457.63 145.916c-208.47 16.669-463.987 3.517-727.625-25.649 263.17 39.414 514.235 58.538 727.625 51.671v-26.022z" fill="url(#paint5_linear_119_3750)"/><path opacity=".6" fill-rule="evenodd" clip-rule="evenodd" d="M1457.63 145.889c-208.84 16.916-465.151 3.773-729.639-25.487 264.204 34.697 518.029 50.89 729.639 39.259v-13.772z" fill="url(#paint6_linear_119_3750)"/><path fill-rule="evenodd" clip-rule="evenodd" d="M1456.76 65.502c-155.47 42.21-379.41 42.765-618.702 31.255 245.052 3.966 475.622-1.576 618.702-60.905v29.65z" fill="url(#paint7_linear_119_3750)"/><defs><linearGradient id="paint0_linear_119_3750" x1="464.7" y1="137.189" x2="-260.025" y2="511.747" gradientUnits="userSpaceOnUse"><stop stop-color="#205426"/><stop offset="1" stop-color="#76B031"/></linearGradient><linearGradient id="paint1_linear_119_3750" x1="199.247" y1="286.108" x2="-482.58" y2="638.495" gradientUnits="userSpaceOnUse"><stop stop-color="#205426"/><stop offset="1" stop-color="#76B031"/></linearGradient><linearGradient id="paint2_linear_119_3750" x1="531.501" y1="-2.728" x2="-442.463" y2="500.642" gradientUnits="userSpaceOnUse"><stop stop-color="#205426"/><stop offset="1" stop-color="#76B031"/></linearGradient><linearGradient id="paint3_linear_119_3750" x1="819.502" y1="-131.767" x2="-113.923" y2="350.653" gradientUnits="userSpaceOnUse"><stop stop-color="#205426"/><stop offset="1" stop-color="#76B031"/></linearGradient><linearGradient id="paint4_linear_119_3750" x1="1411.74" y1="-179.348" x2="-395.991" y2="753.123" gradientUnits="userSpaceOnUse"><stop stop-color="#205426"/><stop offset="1" stop-color="#76B031"/></linearGradient><linearGradient id="paint5_linear_119_3750" x1="2515.18" y1="-500.297" x2="950.446" y2="308.402" gradientUnits="userSpaceOnUse"><stop stop-color="#205426"/><stop offset="1" stop-color="#76B031"/></linearGradient><linearGradient id="paint6_linear_119_3750" x1="1994.72" y1="-256.885" x2="841.068" y2="339.355" gradientUnits="userSpaceOnUse"><stop stop-color="#205426"/><stop offset="1" stop-color="#76B031"/></linearGradient><linearGradient id="paint7_linear_119_3750" x1="1448.9" y1="-105.526" x2="655.499" y2="304.526" gradientUnits="userSpaceOnUse"><stop stop-color="#205426"/><stop offset="1" stop-color="#76B031"/></linearGradient></defs></svg>