<svg width="1440" height="236" fill="none" id="svg" xmlns="http://www.w3.org/2000/svg"><path fill-rule="evenodd" clip-rule="evenodd" d="M-6.109 174.456c107.884-49.711 261.936-70.866 442.294-69.383-173.72-11.42-324.551-1.646-442.294 29.787v39.596z" fill="url(#paint0_linear_119_1483)"/><path fill-rule="evenodd" clip-rule="evenodd" d="M-6.07 174.826c107.859-49.544 261.712-70.632 441.789-69.151-176.318-6.923-328.21 8.061-441.79 47.343v21.808z" fill="url(#paint1_linear_119_1483)"/><path fill-rule="evenodd" clip-rule="evenodd" d="M-6.095 96.382c157.267-30.598 354.83-34.244 567.875-17.886C350.833 54.412 155.914 51.07-6.095 71.203v25.179z" fill="url(#paint2_linear_119_1483)"/><path fill-rule="evenodd" clip-rule="evenodd" d="M-6.172 99.143C151.34 68.274 349.486 64.551 563.216 80.962 350.547 60.28 153.949 60.379-6.173 85.634v13.51z" fill="url(#paint3_linear_119_1483)"/><path fill-rule="evenodd" clip-rule="evenodd" d="M-7.357 123.55c181.842-42.849 449.139-24.175 720.655-5.207 89.851 6.277 180.164 12.586 267.995 16.709 168.337 11.051 327.817 14.285 465.707 4.041V95.232c-150.6 19.215-337.54 16.495-534.364 6.464-61.172-2.508-123.314-5.733-185.407-8.956h-.001C451.677 78.438 177.099 64.187-7.358 112.939l.001 10.611z" fill="url(#paint4_linear_119_1483)"/><path fill-rule="evenodd" clip-rule="evenodd" d="M1447.63 145.916c-208.91 16.669-464.947 3.517-729.128-25.649 263.712 39.414 515.288 58.538 729.128 51.671v-26.022z" fill="url(#paint5_linear_119_1483)"/><path opacity=".6" fill-rule="evenodd" clip-rule="evenodd" d="M1447.63 145.889c-209.27 16.916-466.114 3.773-731.146-25.487 264.748 34.697 519.096 50.89 731.146 39.259v-13.772z" fill="url(#paint6_linear_119_1483)"/><path fill-rule="evenodd" clip-rule="evenodd" d="M1446.75 65.502c-155.78 42.21-380.19 42.765-619.973 31.255 245.553 3.966 476.603-1.576 619.973-60.905v29.65z" fill="url(#paint7_linear_119_1483)"/><defs><linearGradient id="paint0_linear_119_1483" x1="452.651" y1="137.189" x2="-272.936" y2="512.965" gradientUnits="userSpaceOnUse"><stop stop-color="#205426"/><stop offset="1" stop-color="#76B031"/></linearGradient><linearGradient id="paint1_linear_119_1483" x1="186.651" y1="286.108" x2="-495.986" y2="639.64" gradientUnits="userSpaceOnUse"><stop stop-color="#205426"/><stop offset="1" stop-color="#76B031"/></linearGradient><linearGradient id="paint2_linear_119_1483" x1="519.589" y1="-2.728" x2="-455.533" y2="502.279" gradientUnits="userSpaceOnUse"><stop stop-color="#205426"/><stop offset="1" stop-color="#76B031"/></linearGradient><linearGradient id="paint3_linear_119_1483" x1="808.183" y1="-131.767" x2="-126.352" y2="352.221" gradientUnits="userSpaceOnUse"><stop stop-color="#205426"/><stop offset="1" stop-color="#76B031"/></linearGradient><linearGradient id="paint4_linear_119_1483" x1="1401.64" y1="-179.348" x2="-408.245" y2="756.156" gradientUnits="userSpaceOnUse"><stop stop-color="#205426"/><stop offset="1" stop-color="#76B031"/></linearGradient><linearGradient id="paint5_linear_119_1483" x1="2507.36" y1="-500.297" x2="940.758" y2="311.03" gradientUnits="userSpaceOnUse"><stop stop-color="#205426"/><stop offset="1" stop-color="#76B031"/></linearGradient><linearGradient id="paint6_linear_119_1483" x1="1985.82" y1="-256.885" x2="830.798" y2="341.293" gradientUnits="userSpaceOnUse"><stop stop-color="#205426"/><stop offset="1" stop-color="#76B031"/></linearGradient><linearGradient id="paint7_linear_119_1483" x1="1438.88" y1="-105.526" x2="644.533" y2="305.858" gradientUnits="userSpaceOnUse"><stop stop-color="#205426"/><stop offset="1" stop-color="#76B031"/></linearGradient></defs></svg>