<svg width="61" height="52" fill="none" xmlns="http://www.w3.org/2000/svg"><g filter="url(#filter0_d_301_27)" fill="#205426"><path d="M33.421 28.243h.432s.072 0 .072-.07c0-.071-.072-.071-.36-.071h-.072l-.072.141zm-.071-.494c.071 0 .143 0 .143-.07v-.212s0-.071.072-.071h-.144v-.07c.072-.072.072-.142 0-.072a.74.74 0 00-.144.354c.072-.071.072.14.072.14zm-1.946-1.554c.072 0 .432-.282.432-.353 0 0 0-.07-.072-.07-.144.07-.36.423-.36.423zm1.441-.918c-.144 0-.072.142-.072.212.072.07.072.07 0 .07v-.07.07c0 .072 0 .213.144.213 0 0 .072-.07.072-.212v-.141s-.072-.142-.144-.142zm1.8 3.249c0-.071 0-.071 0 0-.072 0-.144.14-.072.14 0 0 .072-.07.072-.14zm-.648.424l.072-.072c-.072-.07-.072 0-.072.071-.072 0 0-.07 0 0zM15.2 14.686l.072-.14c-.072 0-.217.07-.289.282.072 0 .144.07.144.07 0-.141.072-.212.072-.212zm19.302 2.189s-.073 0 0 0c-.073 0-.073.141-.073.141s.072-.07.072-.14zM33.133 29.16c0-.07 0-.07-.072-.07-.216.07-.648.424-.648.424s.432-.141.648-.282l.072-.071zm1.801-1.623c0 .07 0 .07 0 0 .072.07.072.07 0 0 .072.07.072.07 0 0 .072 0 .072.07 0 0zm-5.546.918s.144.07.144 0c0 0 0-.07-.144 0 0 0 .072-.07 0 0zm-1.657-.141v-.071h-.072c-.072 0 0 .07.072.07zm1.873-1.13c-.072-.07-.072 0-.072 0 0 .07.072.07.072 0zm.216.918c.072.141.144.353.288.424h.36c.144 0 .36.07.504.07 0 0 .216 0 .216-.141.073-.141.073-.353.145-.494.072-.071.144-.212.216-.283h.072v-.07c0-.071-.072-.142-.072-.212-.072-.142 0-.142 0-.212l.216-.212c.072-.141-.216-.282-.433-.282-.072 0-.072 0-.144.07-.072.141-.072.141-.216.212a6.285 6.285 0 00-.576.494c-.072.07-.072.142-.144.142h-.144c-.216 0-.288 0-.36.14-.072.071-.072.071.072.354z"/><path d="M29.244 29.302h.144c.576.07 1.44.141 1.512.07 0-.07-.072-.07-.216-.07-.216 0-.216 0-.288-.07.072-.071.072-.071.144-.071h-.576c-.216 0-.432-.07-.648-.07-.072 0-.144 0-.216-.071-.144-.142.144-.353-.072-.495.072.071.216.142.216 0 0-.07-.072-.14-.072-.14h-.216l-.072.07-.216-.212c-.072-.07-.072-.141-.145-.212l-.143-.141-.073-.07a1.525 1.525 0 01-.432-.283c-.072-.07-.216-.141-.288-.212-.072-.07-.144-.141-.288-.141-.144-.212-.216-.212-.288-.212h-.072c-.072 0-.072.07 0 .141l.216.212.144.283.072-.071.072.07c.216.212.216.212.432.495.432.565.648.847 1.153.847 0 .212 0 .282.216.353zm.648-5.154c0-.07-.072-.07-.144-.07-.36.07-.36.282-.288.352.144.07.432-.141.432-.282zm4.538 3.46a.55.55 0 00-.289.14c.144 0 .36-.07.505-.07-.072-.141-.217-.07-.217-.07zm-.433 6.848c0-.07 0-.07 0 0 0-.07 0-.07 0 0 0-.07 0-.07 0 0h-.36c-.072 0-.216.212-.216.353-.072.071-.072.142 0 .142.072.07.504-.424.576-.495zm2.449-1.765c-.072 0-.144.142-.216.353-.072.142-.072.212-.144.283l-.288.282-.072.07v.213l-.216.211c.072 0 .072 0 .216-.14l.072-.071.72-.565.072-.07c-.144 0-.144.07-.216.07v-.212s-.072 0-.072.07c.144-.14.216-.352.144-.494zm-4.249-8.331c0-.071 0-.142-.072-.142 0-.07-.072-.07-.072-.07h-.072c-.289.141-.216.565 0 .847-.073.07-.073.07.144.141-.288 0-.145.142-.145.142.073.07.289.07.289 0 0-.071-.072-.071-.144-.142.072-.07.144-.07.216 0h.144v.07c0 .072 0 .142.072.213v.07s.144 0 .144-.07 0-.283-.288-.283h-.144v-.282c-.072-.212-.072-.353-.072-.494zm1.728 10.873c.072-.07.072-.07.504-.353.072-.07.216-.07.36-.141l.072-.07s0-.071.072-.071c.072-.07.217-.142.288-.212l.145-.141v-.07h-.072c-.216.07-.36.282-.577.423l-.072.07c-.216.142-.504.283-.72.424-.072 0-.072.07-.144.07-.072.071-.144.142-.072.212.072-.07.144-.14.216-.14zm2.737-3.953c-.216.14-.216-.283-.288-.495-.072-.07 0-.141-.072-.282-.072-.071-.216-.071-.216-.212-.072-.212.072-.424 0-.636-.072-.212-.144-.282-.144-.282v-.07c0-.142 0-.283-.072-.213 0 0-.072 0-.072.07-.072.072-.072.213-.216.495-.217.706-.505.777-.505.565 0 0 .073 0 .073-.07h-.217c-.504-.071-.144-.565-.144-.565l.072-.071v-.07s-.72-.071-.792 0h.072l-.72.564h-.288c-.288 0-.576.141-.792.495-.072.14-.217 0-.36.07-.073.07-.073.212-.217.353 0 0-.072.07-.144.07-.144.071-.36.142-.576.213-.144 0-.288.07-.432.14l-.432.213c-.072.07-.072.14-.144.211 0 .142 0 .283-.144.424v-.07h-.072v.988c0 .141-.216.212-.216.353 0 .07.072.141.288.141.144 0 .216 0 .36-.07.072 0 .072 0 .072-.071h.072c.072 0 .144 0 .216-.07.072 0 .144 0 .288-.071.288-.07.504-.212.792-.283.144-.07.36-.07.577-.14h.504c.072 0 .072 0 .144.352h.072c.072 0 .072 0 .144-.07.072-.071.144-.212.288-.283 0 .141-.216.212-.288.353.072 0 .072 0 .216-.141 0 .07 0 .07-.072.141v.07h.072c.072.071-.072.213-.072.283 0 .07 0 .141.072.141.144.071.216.142.36.071.072 0 .144-.07.216-.141v.141c.216.07 1.44-.918 2.16-1.906.217-.283.36-.495.433-.706.144.211.144.14.144.07zm-3.673-5.508l-.144.141c-.072.141-.072.141-.216.212-.144 0-.576.212-.36.282 0 0 .072 0 .072-.07.072-.071.144-.071.216-.071.072 0 .072.07.072.07v.071c.072.07.072.141.216.212 0 0 .072 0 .072-.07v-.142s.072-.141.144-.141c.144-.07.072-.494-.072-.494zm-.649 3.46h-.431c-.288.07-.144.14-.144.14h.144c.144 0 .432-.07.432-.14zm-.503.282s0-.141-.144-.141c-.072 0-.144.07-.144.07 0 .071.288.142.288.071zm-.36-.282c-.073 0-.073.07-.145.07s-.216 0-.288.07h-.072c0 .071.577 0 .649-.07 0 0-.072-.07-.144-.07zm1.008-.706c-.072-.071-.072-.142-.144-.212v-.141c.072 0 .072-.142.144-.142h.144v-.141h-.072l-.144.07h-.072c-.072 0-.144.071-.216.071l-.072-.07c-.072-.142.072-.142.072-.212.288 0 .864-.141.936-.212v-.07c-.216.07-.936.14-.936.14s-.144 0-.288.212c0 .071-.072.071-.072.142 0 .07-.072.282-.072.353v.423c0 .142.144.142.144.142.072-.071.072-.212.144-.354 0-.14 0-.14.072-.14l.072.14c0 .071 0 .071.072.142h.144l.072.07c.072 0 .072-.211.072-.211zm-.576-3.036c-.073 0-.073 0 0 0h-.073c0 .07 0 .07.073 0z"/><path d="M32.773 25.913c0-.07 0-.07 0 0 0 0 0-.07-.072-.07l-.072.07h.144zm0 2.118c0 .07 0 .07 0 0h.288-.288zm-.504-2.471c-.072 0 0 .141.072.141h.072c-.072.212-.072.212-.072.283 0 .07.072.07.144.07s0-.141.072-.141l.072-.141-.216-.07c-.072-.142-.144-.142-.144-.142zM13.903 14.828c-.072 0-.072 0 0 0-.072 0-.072 0 0 0l-.288.353v.211c-.144 0-.216.071-.288.142h.288c.072 0 .072.07.144.07s.144-.07.144-.07v-.07c.072-.072.144-.142.144-.213 0-.07.072-.141 0-.141.072-.212.144-.424.144-.565 0-.07 0-.07.072-.141 0-.07.072-.141.072-.141 0-.07.072-.07.072-.07l.072-.072c0-.07-.072-.07-.072-.07l.072-.07s.144-.071.072-.142a.55.55 0 00-.288.141c-.072.07-.072.212-.144.283l-.072.14h.072v.072c-.072.07-.072.14-.072.14v.071c-.072.142-.144.142-.144.142zm6.698-7.697c.072 0 .216-.07.216-.07l-.216.07c0 .071 0 .071 0 0zm-.576 4.802l.072.07c.072.07.216 0 .216 0v-.212c.072-.282.144-.423.36-.635l.144-.141c.144-.07.288-.212.432-.353.072-.07.144-.07.216-.142.144-.07.36-.211.433-.282.143-.07.143-.212.072-.212-.072.07-.144.142-.289.142-.072.07-.216.07-.288.07 0 0-.072 0-.072.07-.072 0-.072.071-.144.071-.144.07-.36.212-.36.212l-.072.07c-.072.071-.072.142-.072.142l-.216.212s0 .07-.072.141l-.072.07-.072.071c-.072.07-.072.141-.144.212-.072.07-.144.07-.144.141v.07c0 .071.072 0 .072.071v.142zm-.432-2.119c0-.07-.072-.07-.072-.07v-.07h-.072c-.072 0 0-.071-.072-.071l-.216.211h.072s.072 0 0 0c0 0-.072 0-.144.071v.141c0 .07.216-.07.36-.14.144 0 .144 0 .144-.072zm2.232-3.106c.145 0 .145-.07.145-.07 0-.072-.36.07-.36.07.071 0 .143-.07.215 0-.144 0-.216 0-.288.07.072-.07.288-.07.288-.07zm5.69 2.118h-.072c-.072 0-.144.07-.072.141.072.07.216.07.216 0s0-.07-.072-.141zm-.72.141c0 .07.216.494.288.353 0-.07.072-.07.072-.141 0 0 .072 0 .072-.07v-.071c0-.141-.144-.212-.144-.141-.072.07 0 .14 0 .211l-.072-.07c0-.07 0-.141-.072-.07 0 0-.072.07 0 .14-.072-.211-.144-.211-.144-.14zm.648.494c-.072.071-.072.212-.072.212.072 0 .216 0 .216-.07 0-.071-.072-.142-.144-.142zM27.3 9.39v.071s.071 0 .071-.07c0 .07-.072 0-.072 0zm-10.876 4.731c-.072 0-.072.071-.072.071.072 0 .072-.07.072-.07zM15.2 11.65l-.145.141-.072.071-.072.07c0 .071-.072.213 0 .213 0 .07.216 0 .216-.071.144-.07.216-.141.289-.141.072-.07.288-.283.216-.353h-.144v-.071l-.144.07h-.072c.144-.07.144-.211.144-.211-.145 0-.216.141-.216.141.072.07.072.07 0 .141z"/><path d="M13.903 14.333c-.072 0-.072.071-.072.071h-.072c-.072.141-.144.282-.216.353 0 0-.072 0-.072.07 0 0-.072.142 0 .142 0 .07.216 0 .288-.07l.144-.142.072-.07c.072-.071.072-.142.144-.212-.144 0-.072-.142-.216-.142zm10.371-5.507c.072.07.216-.141.216-.141l-.072.07c-.072.07-.072.07 0 .142.072.07.144.14.288 0 0-.071.072-.142.072-.212v-.07s0-.071-.072-.071v-.141c.072-.071 0-.142 0-.142h-.072s-.072.07-.072.141l-.144.212v.07s-.144.071-.144.142zm-5.185.777c-.36.282-.432.353-.432.423 0 0 .072 0 .143-.07.145-.07.145-.142.145-.212.072 0 .072 0 .144-.141 0 0 .072 0 .072-.071.072-.07.072-.141.144-.212l.072-.07.144-.142s-.072 0-.216.071c0-.07-.072 0-.072 0s.072 0 .072-.07c-.072-.071-.648.352-.72.494.072 0 .143-.071.215-.142 0 .071-.216.142-.216.142l-.144.14s-.216.142-.216.213c-.072.07-.144.07-.144.14l.649-.423c.072.07.288-.07.36-.07zm5.545-.353v.07s.144-.07.216-.141c.072-.07.072-.07.144-.07.072-.071 0-.283-.072-.283 0 0-.072.07-.072.141 0 .07-.072.07-.072.141-.072.071-.144.071-.144.142zm-6.338-1.06s.072 0 0 0c.072-.07.072-.07 0 0 0 0 .072 0 0 0zm2.521-1.13c.072 0 .216-.07.216-.07s-.072 0-.216.07c.072-.07.144-.07.216-.07 0-.07-.072 0-.216.07.072-.07.144-.07.144-.07h.072c.072 0 .144 0 .216-.07-.072 0-.432.14-.648.211-.144.071-.216.071-.288.071.144-.07.144-.07.504-.141z"/><path d="M31.765 9.956c.072 0 .072.07.144.07v-.07h.072v-.07s-.577-.636-.937-.636c0 0-.072 0-.072.07.072.07.144.141.144.212-.648-.141-.792-.141-1.08-.141v-.07.07c-.072 0-.144.07-.216.07v.071l.144.141v.07c-.072-.07-.072-.07-.216-.07l.072.212c-.144 0-.288.283-.504.07-.288-.352-.432-.14-.504 0l-.072.071h-.072c-.937-.282-.937-.282-1.153-.14 0 0 .072 0 .072.07v.14h.072l.072.213c-.216.07-.288.14-.288.14-.072 0-.072 0-.144-.07v.283l-.072.07-.288-.211s.072 0 .072-.071c-.144-.353-.504-.494-.576-.282v.14l-.288.071s-.072-.07-.072-.14c-.144 0-.288.07-.36.07 0 0 0 .07-.072.07s-.072 0-.144-.07h-.072v.07h.072c-.072.142-.072.142-.144.212v-.212c.648-1.2-.144-.988-.144-.918v.071c0-.07 0-.141-.144-.353h-.073l-.072.07c-.216.212-.216.565-.504.707v-.07c-.216 0-.792.564-.792.564-.072.141.072.212.072.353-.648.07-.72.353-.432.565l.072.07h-.144c-.144-.07-.216-.211-.36-.14 0 0 .072.07.072.14h-.072l-.072-.07c-.072 0-.072.07-.072.141h-.072v-.212c0-.07.072-.212 0-.212l-.216.283v.07h-.072c.072-.494.072-.494 0-.494s-.144.07-.144.07c-.144.071-.216.283-.288.424v.071c-.072.141-.072.212-.072.353l-.145.212c-.216-.283-.504-.353-.576-.353-.072.07-.072.141 0 .282l-.072.283v-.07c-.216 0-.36.07-.504.07 0 0 0-.07.072-.07v-.071c-.216 0-.72.423-.72.423-.072.07-.072.07-.144 0v-.141c.36-.353 0-.353 0-.353-.144.635-.36.635-.432.635-.072 0-.144 0-.216.071l-.144-.07c.072 0 .216 0 .288-.142 0 0 .432-.423-.216-.847v-.141c-.072 0-.144 0-.144-.071 0 0 0-.07.072-.07.072-.071.216-.071.144-.212h-.144v-.071c-.072 0-.072.07-.144.07v-.14c-.072 0-.072 0-.216.07-.145.141-.36.141-.36.141l.072-.07c-.073 0-.145.07-.145.14v-.07c-.144 0-.144.141-.288.212l.072-.141-.144.141-.072.07h.072l-.144.142c-.072.07-.216.212-.36.282-.288.212-.72.495-1.008.636-.504.212-.864.988-.792 1.13.144 0 .216-.142.36-.142.072.283-.144.494-.216.706.072.07.072.07.144.07-.072 0-.072-.07-.144-.07 0 .142 0 .142.216.07h-.072.072c.072 0 .144-.07.144-.07.648-.706.648-.706.648-.847 0-.212.144-.424.216-.494 0 0 .144-.141.36-.283v.283c-.216.282-.288.565-.216.565 0 .14.072.14.216.14v.142c-.144 0-.432.141-.432.282.144-.07.216.071.144.142 0 0-.072.14-.144.14-.072-.07-.144-.282-.36.213-.144.212-.144.282-.288.282 0-.07-.072-.07-.072-.141h-.144l-.288-.212c.072-.07.072-.07.144-.212v-.07c-.072 0-.144.14-.216.212 0-.071 0-.071.072-.212 0-.07-.072-.07-.144-.142 0 .071-.072.142-.072.212s-.072.142-.145.212l-1.296 1.13-.288.141-.072-.07c-.072 0-.072.07-.072.14h-.216l-.216.99-.432-.213s-.36.142-.504.848c0 .212-.072.423 0 .776h.072c.072-.07.216.071.288 0 .072-.07.072-.07.288-.423.072-.07.216-.283.36-.353l.72-.07c0 .07.072.14.072.21.216.919.36 1.413-.216 1.13 0 .142 0 .142.144.354 0 0 .072 0 .072-.071.072-.141.216-.212.288-.353 0-.212.072-.212.144-.282h.144c0-.142-.072-.283-.144-.424l-.072-.706.144.07c.072.212.216.424.216.636.072.353-.072.706 0 1.059 0 .141.072.212.144.212.144-.07.288-.283.288-.283-.072-.423-.072-.423-.072-.494.145.07.216-.07.36-.07.073.07.073.07 0 .423 0 0 .073.07.073.141h-.072v.212c.072.07.144.212.216.283l.144.14c.072 0 .072-.07.144-.07.288.142.288.142.576.142 0 .14 0 1.341-1.008.917-.072 0-.144-.07-.288-.14-.072-.071-.144-.071-.144-.142-.145-.141-.217-.283-.433-.353h-.072c-.216 0-.144.282-.288.353-.072.07-.072.07-.864-1.06.072-.211.288-.352.216-.564 0-.07 0-.07-.36-.212a.55.55 0 01-.288-.141h-.288c-.216 0-.36 0-.432-.212-.216.141-.505.565-.793 1.06l-.216.14.072.071c0 .07-.072.07-.072.141-.144.283-.216.494-.288.636-.144.918-.144 1.624-.144 2.118 0 .212.072.424.072.636.144.776.432.988.432.988h.144l.505.141.144.07c.216.354.36.495.432.707.144.212.144.424.144.918v.211c.072.354.36.636.432.99.288.776.288.917.216 1.2v.211c0 .142 0 .212.072.353l.072.142.792 1.482s.72 1.2.937 1.342c0 0 .648.282.936 0 0 0 .288-.283.216-.636 0-.14 0-.212.072-.282.144-.07.144-.141.144-.212 0-.141-.072-.282-.144-.494-.072-.424.504-.353.576-.636.072-.212 0-.423-.072-.635a.534.534 0 00-.144-.353c-.072-.141-.072-.283-.144-.424-.144-.423-.072-.565.288-.918.216-.14.504-.494.792-.776a.99.99 0 00.216-.283c.433-.494.72-.988.36-1.059h-.288c-.288.07-.648.282-.864-.07-.072-.071-.216-.354-.432-.777-.36-.706-.792-1.695-.864-2.26-.072-.212-.072-.353 0-.423l.216.14.144.425.72 1.906.072.141c.072.636.504.636 1.08.494.649-.211 1.297-.635 1.297-.635 0-.212.072-.353.072-.565v.494l.072-.07v-.07s0-.072.072-.142c.072 0 .072-.07.072-.07l.144-.142c.072-.07.072-.141.072-.141 0-.07 0-.141-.072-.212-.072-.07-.216-.141-.36-.212-.144-.141-.072-.353-.216-.494-.649.282-.649.282-.72.212v-.07l.432-.354c.144 0 .288-.07.432.07l.072.213c.072.07.072.07.216.14.288.071.288.142.864.071h.216c.432 0 .504.636.936.636-.072 0-.143.07-.216.07 0 .071.073.142.145.212.143.142.36.212.432 0 0 0 0-.07.072-.07.216.565.36 1.13.504 1.694.072.283.216.636.432.918.144.212.36 0 .504-.212l.144.071c0 .07-.072.141-.072.212 0 .141 0 .353.144.423.072.071.216 0 .288-.14v-.071c0-.071-.072-.283-.144-.353l-.072-.071-.072-.07-.144-.354c0-.282-.144-.565.072-.776 0 0 .216-.142.432-.353.36-.283.793-.706.864-.706l.72-.212c.721.565.721.847.721 1.059 0 .212.072.212.216.212.072 0 .072 0 .144-.071.288-.07.288-.07.36 0 .144.282.144.636.216.918 0 .141 0 .353.072.494 0 0 .072.283.288.565.144.282.432.636.72.777.073 0 .073.07.145.07l.072-.07s-.288-.777-.505-.918c-.072-.07-.143-.07-.216-.212-.216-.212-.432-.635-.288-.918l.288-.141c.073.07.216.141.505.353.072.07.216.141.288.212l.072.07v.071s-.072 0-.072.07c.072 0 .144 0 .288-.07s.36-.282.504-.494c.072-.142.072-.283.072-.495 0-.07-.072-.211-.144-.282 0 0 0-.07-.072-.07-.216-.212-.576-.212-.648-.565-.072-.212.288-.565.504-.565.072 0 .072 0 .288.212l1.152-.636.216-.141s0-.07.072-.141c.072-.142.144-.353.216-.565.145-.353.289-.777.145-.777h-.145c.072-.141.072-.212-.072-.282h.072v-.07c-.72-.566-.72-.566-.216-1.13-.144-.283-.576-.142-.576-.071v.07c-.072 0-.216 0-.216-.07l-.072-.353a.727.727 0 01.36-.424h.072c0 .141 0 .282.072.424h.072c.36-.283.36-.283.504-.283.216.07.145.353.36.424h.145c.216.212.144.494.36.777.288-.142.432-.142.432-.283v-.141c-.072-.212-.144-.282-.288-.424l-.288-.353c0-.141 0-.212.072-.353 0-.07 0-.212.072-.282.072-.212.432-.07.504-.353 0-.07.072-.141.072-.212.144-.636.072-1.06.072-1.2 0-.071-.072-.142-.072-.283l.216-.141c.144.212.432.777.576.847v-.141h.072c.072 0 .072.07.072 0 0 0 0-.07-.072-.141-.072-.141-.216-.212-.288-.283-.144-.14-.144-.211-.072-.353v-.07l-.072-.07c-.576-.707-.864-.99-1.008-1.06-.072-.07-.072-.07-.144-.07 0 .07.072.14.072.211l-.072.07c-.072-.07-.144-.14-.216-.14-.145-.071-.216.14-.36.14 0 0-.073-.07-.073-.14 0 0 0 .07-.072.07-.144-.07-.288-.07-.36-.141.072-.494-.144-.918 0-1.412 0-.07 0-.07.576-.353h.073v-.141c.072 0 .072 0 .36.14.144-.14.144-.282.144-.282-.36-.282-.36-.494-.36-.706.072-.14.144-.211.216-.211.144 0 .144.211.288.211.072-.07.072-.07 0-.423-.072 0-.144-.07-.216-.283h.072c.288.353.504.777.72 1.2.072.142.144.283.216.495.072.141.144.353.216.494.144.212.216.424.36.636.216.282.432.494.792.635v-.07c0-.071-.072-.283-.288-1.06v-.07c-.144-.424-.576-.636-.864-.989-.216-.212-.36-.423-.36-.706h.072v-.212h.216c0-.14-.144-.282-.216-.423-.144-.212-.216-.424 0-.565-.072-.141-.144-.212-.864-.495-.072-.282-.36-.423-.577-.635.073 0 .073.07.145.07.144.071.216 0 .216 0zM17.36 18.923s-.144.141-.36.07c-.144-.07-.288-.211-.432-.282-.216-.141-.288-.07-.432-.07h-.072l-.432-.283c.072-.282.576-.989.792-.777.072.07.072.142 0 .212-.072.141 0 .212.072.212.216.07.432 0 .36-.141-.072-.07-.144-.07-.216-.142.216-.14.36-.14.576-.14-.216.14-.288.423-.288.423 0 .07 0 .07.144.282.144.283.36.495.288.636zm.072-6.002c.072 0 .072-.07.072-.07 0 .07-.072.07-.072.07zm1.369 5.931c.144.212.144.212.144.283v.494c0 .07.072.212.072.423v.212H18.8c-.216-.07-.36-.07-.432-.353 0-.14 0-.353.143-.494v-.07c-.143-.212-.215-.354-.215-.565v-.212c0-.212.072-.283.143-.353.72-.494.72 0 .72 0 0 .212-.36.141-.431.423-.072-.07-.072-.07.072.212z"/><path d="M33.06 12.71c-.071 0 0 .211.073.211 0 0 0-.141-.072-.212zM17.648 30.926c.072.141.072.212.144.283.072.07.144.14.216.14.144.071.216-.07.288-.211.072-.141.072-.212.072-.283l.072-.352.072-.636c0-.212-.144-.494-.216-.494l-.216.282c-.072.07-.072.141-.288.141-.144 0-.288.071-.288.142 0 .14.072.211.072.353 0 .14-.072.282-.072.423.144.07.144.142.144.212zm1.225-23.089c.072-.07.144-.07.216-.14-.072.07-.144.14-.216.14zm1.657-.777h.071l.216-.07s.072 0 .072-.07h-.072c.072-.071.144-.071.288-.071.36-.07.36-.141.36-.141-.072 0-.216.07-.288.07h.072l.144-.07s-.144.07-.36.14h.072c-.072 0-.144.072-.216.072-.072.07-.288.14-.36.14zm-.577.283c.072 0 .144-.07.216-.07 0-.071-.144 0-.216.07z"/><path d="M21.25 6.849s-.145 0-.217.07c.072 0 .144-.07.216-.07zm-7.059 4.942l.504-.423c.216-.141.288-.283.505-.424.072-.07.216 0 .36-.07.144-.071.144-.071.504-.142.072 0 .144 0 .216-.07.144-.07.216-.142.216-.212v-.07c.072-.071.216-.142.288-.213a.975.975 0 00-.216.283c.072 0 .072 0 .432-.353.216-.212.288-.283.36-.283l-.216.212c.144 0 .36-.282.432-.353 0 .07-.072.07-.072.141.144 0 .216-.211.36-.14.288-.142.504-.495.865-.566v.071l-.145.141c.073 0 .073-.07.145-.07.36-.212.504-.353.504-.353s.504-.212.864-.353c.072 0 .144-.071.144-.071.072-.07.144-.07.144-.07h.072c.072 0 .072 0 .144-.071h.072c.072 0 .072 0 .144-.07.072 0 .216-.072.288-.213-.144 0-.576.07-.576.07.504-.14.504-.14.648-.21h-.216c.072-.072.216-.072.288-.142h-.144.216c0 .212.432-.07.432-.07.073 0 .145-.071.217-.071l-.072-.071c.432-.07.432-.07.432-.141-.072 0-.072 0-.216.07 0 0 .072 0 .072-.07-.072 0-.072 0-.144.07 0 0 .072 0 .072-.07-.216 0-.505.141-.937.282.144-.07.36-.141.505-.212-.145 0-.289.071-.433.142.072-.071.072-.071.36-.142-.144 0-.288.071-.36.071.288-.07.36-.07.433-.141-.073-.07-.073-.07-.217 0h.072c-.072 0-.288 0-.36.07h-.144c.072 0 .144 0 .288-.07.072 0 .144-.07.288-.07h.361c.072-.071.216-.071.36-.071.072 0 .144 0 .144-.071l.36-.141c-.072 0-.144 0-.216.07.072 0 .144-.07.216-.07-.072 0-.216.07-.288.07-.576.142-1.153.283-1.729.495.576-.212 1.153-.353 1.729-.495h.072-.144l.144-.07s-.864.141-1.009.212c-.072 0-.072 0-.144.07h.144c-.072 0-.144.07-.144.07l-.216.071c.072-.07.216-.07.36-.14h-.072c.289-.142.649-.142 1.009-.283-.072 0-.144.07-.288.07h-.144c-.072 0-.288.071-.288.071h.072c-.072 0-.36.07-.36.07-.649.212-.649.212-.793.212l.216-.07h-.072.072c-.288.07-.72.212-.72.212.072 0 .144-.071.216-.071l-.288.07h-.144c.216-.07.504-.211.504-.211s-.288.141-.576.212h-.288l-.288.211c-.072 0-.144.071-.36.142h-.072l.144-.07s.072-.072.144-.072l-.072.071-.288.141h.072l-1.225.777a.892.892 0 00-.216.141c-.072 0-.216.141-.216.141-.216.142-.216.142-.288.142h.072c-.072.07-.072.07-.36.282l.072-.07c-.144 0-.432.282-.432.282.072 0 .072 0 .216-.141l-.216.211h.072c-.216.142-.36.283-.504.354l.144-.283c.216-.212.432-.424.72-.565l1.008-.706c.144-.07.288-.212.432-.282h.072c.072-.07.36-.212.36-.212.073 0 .073-.07.145-.07.072-.071.144-.071.288-.142-.072 0-.216.07-.72.353-.145.07-.36.212-.505.283h-.144c-.072.07-.144.07-.216.14l.072-.07-.072.07c.072 0 .144-.14.216-.14a1.04 1.04 0 01-.216.14c-.576.354-.792.495-1.44 1.06l-.072.07.072-.07-.36.353-.072.07-.288.283-.072.07.36-.352h.216c-.937.706-1.153.988-1.657 1.623zm3.241-2.753c0-.07 0-.07 0 0 0-.07 0-.07 0 0z"/><path d="M18.44 9.32l.072-.07c0 .07 0 .07-.072.07zm25.424 19.912c.937-2.825 1.153-5.65.793-8.615-.144-1.482-.505-2.683-.72-3.46.143.777.287 1.695.36 2.754a17.39 17.39 0 01-.793 6.284c-.072.212-.144.354-.216.565-1.584 4.59-4.537 8.05-8.93 10.238-2.881 1.413-5.978 1.907-9.22 1.695-1.8-.212-3.529-.636-5.185-1.342-2.089-.917-3.89-2.118-5.546-3.6-.36-.354-.72-.777-1.08-1.13-2.017-2.401-3.385-5.013-4.105-7.838-1.009-4.095 0-7.484-.216-7.484.072-.141.072-.283.072-.494.072-.283.072-.495.144-.777-.36.565-.576 1.27-.72 1.906-2.161 8.261 1.44 16.875 9.002 21.253a17.22 17.22 0 007.418 2.33c1.657.212 3.241.141 4.826-.141 2.665-.494 5.114-1.412 7.202-3.036a7.405 7.405 0 001.8-1.483.86.86 0 00.36-.353c1.01-.847 1.801-1.906 2.45-2.965a12.826 12.826 0 002.016-4.096c.216-.07.216-.14.288-.212zm-3.96 4.942c.071-.07.143-.212.287-.282l-.288.282zm1.367-1.694c.505-.777 1.153-1.766 1.657-2.895-.504 1.13-1.152 2.118-1.656 2.895zm-1.008 1.27l.216-.211-.216.211zm.36-.494zm.36-.423c.073-.142.145-.212.289-.353-.145.14-.216.211-.288.353z"/><path d="M23.122 42.153c-.864-.212-1.657-.424-2.52-.636-4.61-1.624-8.283-4.448-10.804-8.614a24.725 24.725 0 01-1.657-3.742 20.193 20.193 0 01-.864-7.767c.216-1.694.648-3.39 1.224-5.013.793-1.412 1.369-2.966 2.45-4.307 1.08-1.342 2.232-2.613 3.528-3.672.072-.07.144-.07.216-.14 4.034-3.108 8.715-4.45 13.828-4.026.289 0 .649.071.937.142.864.14 1.656.282 2.52.494-.143-.283-.288-.212-.503-.283-.433-.14-.937-.353-1.441-.423a15.844 15.844 0 00-5.114-.847c-7.778-.071-13.828 3.177-18.005 9.673-1.657 2.542-2.593 5.437-2.809 8.473a17.76 17.76 0 00.864 7.767c.648 2.118 1.657 4.095 3.025 5.79 0 .07.072.07.072.14a10.038 10.038 0 001.8 2.048c.073.07.145.212.217.283.936 1.059 2.16 1.765 3.313 2.541 1.224.777 2.52 1.483 3.961 1.907 1.729.706 3.457 1.059 5.33 1.13 2.593.282 5.041-.071 7.49-.848-.72.142-1.368.212-2.089.212-1.584.07-3.24 0-4.97-.282zM40.407 19.77c1.369 1.06 2.593 1.765 3.457 2.26-.072-1.342-.288-2.613-.504-3.884-.504-2.754-1.296-5.437-2.593-7.908.072-.141-.216-.212-.072-.424.432.354.576.848.864 1.271.433.777.865 1.554 1.297 2.472a25.734 25.734 0 012.017 6.92c.216-.425.504-.99.72-1.625.288-.847.504-1.624.576-2.26.864-5.295-1.945-10.59-5.546-13.626-.72-.636-1.872-1.483-3.529-2.26C36.59.494 36.014.212 35.366 0c-.865 1.624-2.305 4.872-1.8 8.826.72 6.072 5.257 9.673 6.841 10.944zm5.978 5.013c.504-.988 1.153-1.906 1.729-2.753.36-.495.936-1.06 1.584-1.766.072-.07 1.152-1.13 1.224-1.059.073.07-1.728 1.695-3.24 4.378-.433.777-.865 1.553-1.153 2.33.504-.07 1.225-.212 2.089-.494.864-.283 2.88-.989 4.681-2.895.504-.565 2.953-3.107 2.737-6.496 0-.494-.144-.847-.144-1.06-.432 0-.792.071-1.224.071-.432.071-.865.142-1.297.283-3.817.988-6.338 3.813-6.986 6.849a7.95 7.95 0 000 2.612zm7.202 1.977c-1.008-.07-4.177-.282-6.914 1.765-.432.283-1.224 1.06-2.017 2.19-.216.352-.432.776-.648 1.2-.216.494-.432.918-.432 1.624.36-.354.792-.706 1.369-1.2.072-.071.792-.636 1.368-1.06.648-.424 1.8-1.13 3.601-1.694-.576.353-1.152.635-1.728.988-1.44.847-2.45 1.695-2.737 1.977a22.233 22.233 0 00-1.945 1.836c1.009.212 4.033.706 7.202-.847.72-.354 4.106-2.048 4.898-5.367.144-.423.144-.847.144-1.13-.432-.14-1.152-.282-1.945-.352 0 .14-.072.14-.216.07zM40.84 29.302c.36-.847.648-1.906.648-3.177 0-.494 0-.989-.072-1.483-.577-3.319-3.17-6.213-5.978-7.131a2.94 2.94 0 00-1.08-.212v-.07h-.073s-.072 0-.072.07v.07c-.144 0-.216 0-.36-.07h-.288c0 .07-.072.141-.144.282h-.072s0 .07.072.07c-.432 1.06-1.296 3.531-.432 6.285.504 1.624 1.44 2.824 2.377 3.742-.216 0-.288.07-.432.212l-.072.07c-.145.142-.145.142-.217.071l-.144-.353h-.432c-.072 0-.072 0-.072.141.144.142.36.071.504.142-.072.07-.216 0-.288.14-.072.071.144.142.144.142.072 0 .072-.07.072-.07.144 0 .288.07.432.07.073 0 .217 0 .289.07l.144.283s0 .07-.072.07c-.072.071-.072.071-.072.142h.288l.072.141.072-.141h.072c.072 0 .144.07.216 0 .216 0 .288-.353.504-.353h.144c.072.07.144.07.216.141l.072.07c.792.566 1.513.919 1.8 1.06.72.353 1.297.565 1.73.635a51.621 51.621 0 00-.433-2.047c-.504-1.907-1.08-3.743-2.233-5.296-.144-.212-.288-.494-.432-.706l.648.636c.288.352.577.706.793 1.059.288.564.648 1.13.936 1.694.504 1.2.864 2.4 1.224 3.601z"/></g><defs><filter id="filter0_d_301_27" x="0" y="0" width="60.05" height="51.167" filterUnits="userSpaceOnUse" color-interpolation-filters="sRGB"><feFlood flood-opacity="0" result="BackgroundImageFix"/><feColorMatrix in="SourceAlpha" values="0 0 0 0 0 0 0 0 0 0 0 0 0 0 0 0 0 0 127 0" result="hardAlpha"/><feOffset dy="4"/><feGaussianBlur stdDeviation="2"/><feComposite in2="hardAlpha" operator="out"/><feColorMatrix values="0 0 0 0 0 0 0 0 0 0 0 0 0 0 0 0 0 0 0.25 0"/><feBlend in2="BackgroundImageFix" result="effect1_dropShadow_301_27"/><feBlend in="SourceGraphic" in2="effect1_dropShadow_301_27" result="shape"/></filter></defs></svg>